# xmcd
#
# Track frame offsets:
#	150
#	14775
#	30787
#	50522
#	65332
#	86935
#	110132
#	129840
#	142230
#	159582
#	175065
#	188185
#	203115
#
# Disc length: 2926 seconds
#
# Revision: 13
# Processed by: cddbd v1.5.2PL0 Copyright (c) Steve Scherf et al.
# Submitted via: audiograbber 1.83.01
#
DISCID=b80b6c0d
DTITLE=Various Artist - Mama's Hungry Eyes - A Tribute To Merle Haggard
DYEAR=1994
DGENRE=Country
TTITLE0=Brooks and Dunn - Tonight The Bottle Let Me Down
TTITLE1=Clint Black - I Take A Lot Of Pride In What I Am
TTITLE2=Pam Tillis - Silver Wings
TTITLE3=Randy Travis - Everybody's Had The Blues
TTITLE4=Vince Gill - The Farmer's Daughter
TTITLE5=Diamond Rio and Lee Roy Parnell and Steve Wariner - Workin' Man Blues
TTITLE6=Radney Foster - The Running Kind
TTITLE7=Alabama - Sing Me Back Home
TTITLE8=Alan Jackson - Trying Not To Love You
TTITLE9=Lorrie Morgan - I Threw Away The Rose
TTITLE10=John Anderson and Marty Stuart - Mama Tried
TTITLE11=Willie Nelson - Today I Started Loving You Again
TTITLE12=Emmylou Harris - Mama's Hungry Eyes
EXTD=
EXTT0=
EXTT1=
EXTT2=
EXTT3=
EXTT4=
EXTT5=
EXTT6=
EXTT7=
EXTT8=
EXTT9=
EXTT10=
EXTT11=
EXTT12=
PLAYORDER=
